<svg xmlns="http://www.w3.org/2000/svg" width="960" height="560" viewBox="0 0 960 560">
<rect width="100%" height="100%" fill="#fcfcfb" />
<text x="80" y="28" font-family="monospace" font-size="22" fill="#1f2933">Generated RDDL CartPole: reward vs random</text>
<text x="80" y="48" font-family="monospace" font-size="12" fill="#52606d">Score curve from Puffer training log with Monte Carlo random-policy baseline.</text>
<line x1="80" y1="496.00" x2="936" y2="496.00" stroke="#d5d8dc" stroke-width="1" />
<text x="68" y="500.00" text-anchor="end" font-family="monospace" font-size="12" fill="#4a5568">0</text>
<line x1="80" y1="384.00" x2="936" y2="384.00" stroke="#d5d8dc" stroke-width="1" />
<text x="68" y="388.00" text-anchor="end" font-family="monospace" font-size="12" fill="#4a5568">50</text>
<line x1="80" y1="272.00" x2="936" y2="272.00" stroke="#d5d8dc" stroke-width="1" />
<text x="68" y="276.00" text-anchor="end" font-family="monospace" font-size="12" fill="#4a5568">100</text>
<line x1="80" y1="160.00" x2="936" y2="160.00" stroke="#d5d8dc" stroke-width="1" />
<text x="68" y="164.00" text-anchor="end" font-family="monospace" font-size="12" fill="#4a5568">150</text>
<line x1="80" y1="48.00" x2="936" y2="48.00" stroke="#d5d8dc" stroke-width="1" />
<text x="68" y="52.00" text-anchor="end" font-family="monospace" font-size="12" fill="#4a5568">200</text>
<line x1="80" y1="496" x2="936" y2="496" stroke="#1f2933" stroke-width="2" />
<line x1="80" y1="48" x2="80" y2="496" stroke="#1f2933" stroke-width="2" />
<line x1="80.00" y1="496" x2="80.00" y2="502" stroke="#4a5568" stroke-width="1" />
<text x="80.00" y="542" text-anchor="middle" font-family="monospace" font-size="12" fill="#4a5568">0.0M</text>
<line x1="294.00" y1="496" x2="294.00" y2="502" stroke="#4a5568" stroke-width="1" />
<text x="294.00" y="542" text-anchor="middle" font-family="monospace" font-size="12" fill="#4a5568">1.4M</text>
<line x1="508.00" y1="496" x2="508.00" y2="502" stroke="#4a5568" stroke-width="1" />
<text x="508.00" y="542" text-anchor="middle" font-family="monospace" font-size="12" fill="#4a5568">2.8M</text>
<line x1="722.00" y1="496" x2="722.00" y2="502" stroke="#4a5568" stroke-width="1" />
<text x="722.00" y="542" text-anchor="middle" font-family="monospace" font-size="12" fill="#4a5568">4.2M</text>
<line x1="936.00" y1="496" x2="936.00" y2="502" stroke="#4a5568" stroke-width="1" />
<text x="936.00" y="542" text-anchor="middle" font-family="monospace" font-size="12" fill="#4a5568">5.6M</text>
<line x1="80" y1="474.28" x2="936" y2="474.28" stroke="#d64545" stroke-width="2" stroke-dasharray="8 8" />
<polyline fill="none" stroke="#147d64" stroke-width="4" points="796.65,356.38 936.00,57.64 936.00,60.55 936.00,60.55" />
<circle cx="936.00" cy="57.64" r="5" fill="#0b6e4f" />
<circle cx="936.00" cy="60.55" r="5" fill="#1f2933" />
<text x="944.00" y="47.64" font-family="monospace" font-size="12" fill="#0b6e4f">peak 195.7</text>
<text x="928.00" y="50.55" text-anchor="end" font-family="monospace" font-size="12" fill="#1f2933">final 194.4</text>
<text x="936" y="466.28" text-anchor="end" font-family="monospace" font-size="12" fill="#d64545">random mean 9.7</text>
<text x="480.00" y="556" text-anchor="middle" font-family="monospace" font-size="12" fill="#4a5568">agent steps (M)</text>
<text x="20" y="280.00" transform="rotate(-90 20 280.00)" text-anchor="middle" font-family="monospace" font-size="12" fill="#4a5568">episode return / score</text>
<text x="936" y="28" text-anchor="end" font-family="monospace" font-size="12" fill="#1f2933">peak/random 20.18x</text>
<text x="936" y="44" text-anchor="end" font-family="monospace" font-size="12" fill="#1f2933">final/random 20.05x</text>
</svg>