<svg xmlns="http://www.w3.org/2000/svg" width="1100" height="560" viewBox="0 0 1100 560">
<rect width="100%" height="100%" fill="#fcfcfb" />
<text x="80" y="28" font-family="monospace" font-size="22" fill="#1f2933">CartPole final SPS by sweep run</text>
<text x="80" y="46" font-family="monospace" font-size="12" fill="#52606d">Final logged steps per second for each run. Blue = native, green = generated.</text>
<line x1="80" y1="480.00" x2="1076" y2="480.00" stroke="#d5d8dc" stroke-width="1" />
<text x="68" y="484.00" text-anchor="end" font-family="monospace" font-size="12" fill="#4a5568">0.0M</text>
<line x1="80" y1="394.40" x2="1076" y2="394.40" stroke="#d5d8dc" stroke-width="1" />
<text x="68" y="398.40" text-anchor="end" font-family="monospace" font-size="12" fill="#4a5568">1.8M</text>
<line x1="80" y1="308.80" x2="1076" y2="308.80" stroke="#d5d8dc" stroke-width="1" />
<text x="68" y="312.80" text-anchor="end" font-family="monospace" font-size="12" fill="#4a5568">3.6M</text>
<line x1="80" y1="223.20" x2="1076" y2="223.20" stroke="#d5d8dc" stroke-width="1" />
<text x="68" y="227.20" text-anchor="end" font-family="monospace" font-size="12" fill="#4a5568">5.4M</text>
<line x1="80" y1="137.60" x2="1076" y2="137.60" stroke="#d5d8dc" stroke-width="1" />
<text x="68" y="141.60" text-anchor="end" font-family="monospace" font-size="12" fill="#4a5568">7.2M</text>
<line x1="80" y1="52.00" x2="1076" y2="52.00" stroke="#d5d8dc" stroke-width="1" />
<text x="68" y="56.00" text-anchor="end" font-family="monospace" font-size="12" fill="#4a5568">9.0M</text>
<line x1="80" y1="480" x2="1076" y2="480" stroke="#1f2933" stroke-width="2" />
<line x1="80" y1="52" x2="80" y2="480" stroke="#1f2933" stroke-width="2" />
<rect x="100.75" y="128.67" width="83.00" height="351.33" fill="#127fbf" />
<text x="142.25" y="498.00" text-anchor="middle" font-family="monospace" font-size="10" fill="#4a5568">N1</text>
<text x="142.25" y="120.67" text-anchor="middle" font-family="monospace" font-size="10" fill="#127fbf">7.39M</text>
<rect x="225.25" y="132.07" width="83.00" height="347.93" fill="#127fbf" />
<text x="266.75" y="498.00" text-anchor="middle" font-family="monospace" font-size="10" fill="#4a5568">N2</text>
<text x="266.75" y="124.07" text-anchor="middle" font-family="monospace" font-size="10" fill="#127fbf">7.32M</text>
<rect x="349.75" y="437.16" width="83.00" height="42.84" fill="#127fbf" />
<text x="391.25" y="498.00" text-anchor="middle" font-family="monospace" font-size="10" fill="#4a5568">N3</text>
<text x="391.25" y="429.16" text-anchor="middle" font-family="monospace" font-size="10" fill="#127fbf">0.90M</text>
<rect x="474.25" y="269.37" width="83.00" height="210.63" fill="#127fbf" />
<text x="515.75" y="498.00" text-anchor="middle" font-family="monospace" font-size="10" fill="#4a5568">N4</text>
<text x="515.75" y="261.37" text-anchor="middle" font-family="monospace" font-size="10" fill="#127fbf">4.43M</text>
<rect x="598.75" y="103.01" width="83.00" height="376.99" fill="#0b6e4f" />
<text x="640.25" y="498.00" text-anchor="middle" font-family="monospace" font-size="10" fill="#4a5568">G1</text>
<text x="640.25" y="95.01" text-anchor="middle" font-family="monospace" font-size="10" fill="#0b6e4f">7.93M</text>
<rect x="723.25" y="98.71" width="83.00" height="381.29" fill="#0b6e4f" />
<text x="764.75" y="498.00" text-anchor="middle" font-family="monospace" font-size="10" fill="#4a5568">G2</text>
<text x="764.75" y="90.71" text-anchor="middle" font-family="monospace" font-size="10" fill="#0b6e4f">8.02M</text>
<rect x="847.75" y="454.22" width="83.00" height="25.78" fill="#0b6e4f" />
<text x="889.25" y="498.00" text-anchor="middle" font-family="monospace" font-size="10" fill="#4a5568">G3</text>
<text x="889.25" y="446.22" text-anchor="middle" font-family="monospace" font-size="10" fill="#0b6e4f">0.54M</text>
<rect x="972.25" y="368.06" width="83.00" height="111.94" fill="#0b6e4f" />
<text x="1013.75" y="498.00" text-anchor="middle" font-family="monospace" font-size="10" fill="#4a5568">G4</text>
<text x="1013.75" y="360.06" text-anchor="middle" font-family="monospace" font-size="10" fill="#0b6e4f">2.35M</text>
<text x="550.00" y="548" text-anchor="middle" font-family="monospace" font-size="12" fill="#4a5568">sweep runs</text>
<text x="20" y="280.00" transform="rotate(-90 20 280.00)" text-anchor="middle" font-family="monospace" font-size="12" fill="#4a5568">final SPS</text>
</svg>