<svg xmlns="http://www.w3.org/2000/svg" width="1100" height="560" viewBox="0 0 1100 560">
<rect width="100%" height="100%" fill="#fcfcfb" />
<text x="80" y="28" font-family="monospace" font-size="22" fill="#1f2933">CartPole sweep comparison: native vs generated</text>
<text x="80" y="46" font-family="monospace" font-size="12" fill="#52606d">Final score per sweep run. Blue = native cartpole, green = generated RDDL CartPole.</text>
<line x1="80" y1="480.00" x2="1076" y2="480.00" stroke="#d5d8dc" stroke-width="1" />
<text x="68" y="484.00" text-anchor="end" font-family="monospace" font-size="12" fill="#4a5568">0</text>
<line x1="80" y1="373.00" x2="1076" y2="373.00" stroke="#d5d8dc" stroke-width="1" />
<text x="68" y="377.00" text-anchor="end" font-family="monospace" font-size="12" fill="#4a5568">50</text>
<line x1="80" y1="266.00" x2="1076" y2="266.00" stroke="#d5d8dc" stroke-width="1" />
<text x="68" y="270.00" text-anchor="end" font-family="monospace" font-size="12" fill="#4a5568">100</text>
<line x1="80" y1="159.00" x2="1076" y2="159.00" stroke="#d5d8dc" stroke-width="1" />
<text x="68" y="163.00" text-anchor="end" font-family="monospace" font-size="12" fill="#4a5568">150</text>
<line x1="80" y1="52.00" x2="1076" y2="52.00" stroke="#d5d8dc" stroke-width="1" />
<text x="68" y="56.00" text-anchor="end" font-family="monospace" font-size="12" fill="#4a5568">200</text>
<line x1="80" y1="480" x2="1076" y2="480" stroke="#1f2933" stroke-width="2" />
<line x1="80" y1="52" x2="80" y2="480" stroke="#1f2933" stroke-width="2" />
<rect x="100.75" y="58.50" width="83.00" height="421.50" fill="#127fbf" />
<text x="142.25" y="498.00" text-anchor="middle" font-family="monospace" font-size="10" fill="#4a5568">N1</text>
<text x="142.25" y="50.50" text-anchor="middle" font-family="monospace" font-size="10" fill="#127fbf">197.0</text>
<rect x="225.25" y="58.50" width="83.00" height="421.50" fill="#127fbf" />
<text x="266.75" y="498.00" text-anchor="middle" font-family="monospace" font-size="10" fill="#4a5568">N2</text>
<text x="266.75" y="50.50" text-anchor="middle" font-family="monospace" font-size="10" fill="#127fbf">197.0</text>
<rect x="349.75" y="456.71" width="83.00" height="23.29" fill="#127fbf" />
<text x="391.25" y="498.00" text-anchor="middle" font-family="monospace" font-size="10" fill="#4a5568">N3</text>
<text x="391.25" y="448.71" text-anchor="middle" font-family="monospace" font-size="10" fill="#127fbf">10.9</text>
<rect x="474.25" y="459.81" width="83.00" height="20.19" fill="#127fbf" />
<text x="515.75" y="498.00" text-anchor="middle" font-family="monospace" font-size="10" fill="#4a5568">N4</text>
<text x="515.75" y="451.81" text-anchor="middle" font-family="monospace" font-size="10" fill="#127fbf">9.4</text>
<rect x="598.75" y="63.99" width="83.00" height="416.01" fill="#0b6e4f" />
<text x="640.25" y="498.00" text-anchor="middle" font-family="monospace" font-size="10" fill="#4a5568">G1</text>
<text x="640.25" y="55.99" text-anchor="middle" font-family="monospace" font-size="10" fill="#0b6e4f">194.4</text>
<rect x="723.25" y="63.99" width="83.00" height="416.01" fill="#0b6e4f" />
<text x="764.75" y="498.00" text-anchor="middle" font-family="monospace" font-size="10" fill="#4a5568">G2</text>
<text x="764.75" y="55.99" text-anchor="middle" font-family="monospace" font-size="10" fill="#0b6e4f">194.4</text>
<rect x="847.75" y="458.49" width="83.00" height="21.51" fill="#0b6e4f" />
<text x="889.25" y="498.00" text-anchor="middle" font-family="monospace" font-size="10" fill="#4a5568">G3</text>
<text x="889.25" y="450.49" text-anchor="middle" font-family="monospace" font-size="10" fill="#0b6e4f">10.1</text>
<rect x="972.25" y="461.96" width="83.00" height="18.04" fill="#0b6e4f" />
<text x="1013.75" y="498.00" text-anchor="middle" font-family="monospace" font-size="10" fill="#4a5568">G4</text>
<text x="1013.75" y="453.96" text-anchor="middle" font-family="monospace" font-size="10" fill="#0b6e4f">8.4</text>
<text x="550.00" y="548" text-anchor="middle" font-family="monospace" font-size="12" fill="#4a5568">Sweep runs</text>
<text x="20" y="280.00" transform="rotate(-90 20 280.00)" text-anchor="middle" font-family="monospace" font-size="12" fill="#4a5568">Final score</text>
</svg>